HIERARCHY
ROOT Hips
{
    OFFSET 0.0 0.0 0.0
    CHANNELS 6 Xposition Yposition Zposition Zrotation Xrotation Yrotation
    JOINT LeftHipJoint
    {
        OFFSET 0.1 0.0 0.0
        CHANNELS 3 Zrotation Xrotation Yrotation
        JOINT LeftUpLeg
        {
            OFFSET 118.57573343412817 0.0 0.0
            CHANNELS 3 Zrotation Xrotation Yrotation
            JOINT LeftLeg
            {
                OFFSET 0.0 0.0 -390.9609744770942
                CHANNELS 3 Zrotation Xrotation Yrotation
                JOINT LeftFoot
                {
                    OFFSET 0.0 0.0 -383.88719378952385
                    CHANNELS 3 Zrotation Xrotation Yrotation
                    End Site
                    {
                        OFFSET 0.0 -0.1 0.0
                    }
                }
            }
        }
    }
    JOINT LowerBack
    {
        OFFSET 0.0 0.0 0.1
        CHANNELS 3 Zrotation Xrotation Yrotation
        JOINT Spine
        {
            OFFSET 0.0 0.0 220.00867581707212
            CHANNELS 3 Zrotation Xrotation Yrotation
            JOINT Spine1
            {
                OFFSET 0.0 0.0 255.68899916212138
                CHANNELS 3 Zrotation Xrotation Yrotation
                JOINT LeftShoulder
                {
                    OFFSET 0.1 0.0 0.0
                    CHANNELS 3 Zrotation Xrotation Yrotation
                    JOINT LeftArm
                    {
                        OFFSET 146.45439717833452 0.0 0.0
                        CHANNELS 3 Zrotation Xrotation Yrotation
                        JOINT LeftForeArm
                        {
                            OFFSET 256.6059610644937 0.0 0.0
                            CHANNELS 3 Zrotation Xrotation Yrotation
                            JOINT LeftHand
                            {
                                OFFSET 233.48183328015085 0.0 0.0
                                CHANNELS 3 Zrotation Xrotation Yrotation
                                End Site
                                {
                                    OFFSET 0.1 0.0 0.0
                                }
                            }
                        }
                    }
                }
                JOINT Neck
                {
                    OFFSET 0.0 0.0 0.1
                    CHANNELS 3 Zrotation Xrotation Yrotation
                    JOINT Neck1
                    {
                        OFFSET 0.0 0.0 109.49850314466404
                        CHANNELS 3 Zrotation Xrotation Yrotation
                        End Site
                        {
                            OFFSET 0.0 0.0 113.87041742595831
                        }
                    }
                }
                JOINT RightShoulder
                {
                    OFFSET -0.1 0.0 0.0
                    CHANNELS 3 Zrotation Xrotation Yrotation
                    JOINT RightArm
                    {
                        OFFSET -146.45439717833452 0.0 0.0
                        CHANNELS 3 Zrotation Xrotation Yrotation
                        JOINT RightForeArm
                        {
                            OFFSET -256.6059610644937 0.0 0.0
                            CHANNELS 3 Zrotation Xrotation Yrotation
                            JOINT RightHand
                            {
                                OFFSET -233.48183328015085 0.0 0.0
                                CHANNELS 3 Zrotation Xrotation Yrotation
                                End Site
                                {
                                    OFFSET -0.1 0.0 0.0
                                }
                            }
                        }
                    }
                }
            }
        }
    }
    JOINT RightHipJoint
    {
        OFFSET -0.1 0.0 0.0
        CHANNELS 3 Zrotation Xrotation Yrotation
        JOINT RightUpLeg
        {
            OFFSET -118.57573343412817 0.0 0.0
            CHANNELS 3 Zrotation Xrotation Yrotation
            JOINT RightLeg
            {
                OFFSET 0.0 0.0 -390.9609744770942
                CHANNELS 3 Zrotation Xrotation Yrotation
                JOINT RightFoot
                {
                    OFFSET 0.0 0.0 -383.88719378952385
                    CHANNELS 3 Zrotation Xrotation Yrotation
                    End Site
                    {
                        OFFSET 0.0 -0.1 0.0
                    }
                }
            }
        }
    }
}
MOTION
Frames: 4
Frame Time: 0.03333333333333333
0.0 0.0 788.8514566978998 25.56449735272095 11.59788243483635 3.84216467217922 0.0 0.0 -3.975693351829396e-16 -1.145568229531789 -29.975006258681304 -6.626437564636915 -1.9493562909692213 24.180298128992398 3.989723465780413 0.0 0.0 0.0 0.0 0.0 -3.975693351829396e-16 -0.20983692931580156 -6.022333571363104 -0.3779465800224146 -0.3485563937386936 -5.963512440097164e-16 -1.8139440796225266e-18 0.0 0.0 -1.987846675914698e-16 -31.890014172628423 25.04069048535268 68.89071959467097 -46.610152029007 1.483037645619852e-15 -1.1482014040457041e-14 0.0 0.0 1.8387581752210955e-15 0.0 0.0 -1.987846675914698e-16 -4.743782411984116 -4.193695024722332 -5.360997988034934 0.0 0.0 -1.987846675914698e-16 22.5552424998826 14.628702489279119 -74.66345778558288 49.46977218531304 9.120517995974294e-15 -1.8209041788025755e-14 0.0 0.0 -3.1805546814635168e-15 0.0 0.0 -3.975693351829396e-16 -0.9877067700083084 -26.369902628231724 -1.7638936603753816 0.2073818427378952 24.426584754502297 0.3580395642591018 0.0 0.0 3.975693351829396e-16
0.0 0.0 788.8514566978998 25.545218317605016 11.359022942762282 3.8370059054745216 0.0 0.0 3.975693351829396e-16 -1.153669814551606 -29.776032738212844 -6.599881119166389 -1.9571060640125222 24.55177764997093 3.9478276174449256 -2.758691436281349e-33 -7.951386703658792e-16 -3.975693351829396e-16 0.0 0.0 3.975693351829396e-16 -0.21699671293900546 -6.133198690437952 -0.34194801960077054 -0.29204155880311905 -1.9777080043211373e-16 -3.980746548622466e-16 3.1805546814635164e-15 -5.517382872562698e-33 -1.9878466759146977e-16 -32.362930559962926 25.410361922413713 69.12637825383202 -46.628507503687814 3.235551068800429e-15 5.285668056879056e-16 0.0 0.0 -4.969616689786745e-17 3.1805546814635164e-15 -5.517382872562698e-33 -1.9878466759146977e-16 -4.783864850592859 -4.309212153668488 -5.381593370055008 3.1805546814635164e-15 -5.517382872562698e-33 -1.9878466759146977e-16 22.91081338241953 14.777643248108285 -74.74089489418074 49.994573199261524 -1.3440239776596926e-15 -2.8826251281176522e-15 0.0 0.0 -1.5902773407317584e-15 0.0 0.0 3.975693351829396e-16 -0.994287940051883 -26.17359241047674 -1.7359185851802008 0.23857133034895756 24.868829128034562 0.34726189640033767 0.0 0.0 -3.975693351829396e-16
0.0 0.0 788.8514566978998 25.513147422523925 11.1305633941168 3.8400294286458294 -5.517382872562698e-33 -1.5902773407317584e-15 -3.975693351829396e-16 -1.1700787351867021 -29.507731712555454 -6.6066556872070334 -1.965392143958381 24.87916435280932 3.866144066097517 0.0 0.0 1.987846675914698e-16 -5.517382872562698e-33 -1.5902773407317584e-15 -3.975693351829396e-16 -0.22902935990608184 -6.31167896688887 -0.3467015264512405 -0.2129947241215077 -1.9712163389393355e-16 -8.948989456507493e-16 0.0 0.0 -3.975693351829396e-16 -32.91011335847264 25.82635246762749 69.35890714968355 -46.70569405953657 -5.840014646740675e-15 -2.521495836397983e-15 0.0 0.0 2.1866313435061676e-15 0.0 0.0 -3.975693351829396e-16 -4.781734457931472 -4.404122867864092 -5.269689227094304 0.0 0.0 -3.975693351829396e-16 23.333335202482505 15.015189807379695 -74.78013124604485 50.739228939449355 1.0659780527016342e-15 1.7094607487823866e-14 0.0 0.0 -1.5902773407317584e-15 -5.517382872562698e-33 -1.5902773407317584e-15 -3.975693351829396e-16 -1.0055103293535808 -25.859968705520377 -1.6792883547570614 0.2932353919827065 25.233995662693715 0.24526876546422252 0.0 0.0 -3.975693351829396e-16
0.0 0.0 788.8514566978998 25.521475409189655 10.869515526818226 3.859814150089481 0.0 0.0 7.951386703658792e-16 -1.158538885449415 -29.22286578275115 -6.626452063572383 -1.999115166217588 25.137526699997476 3.944698096996945 0.0 0.0 -1.987846675914698e-16 0.0 0.0 7.951386703658792e-16 -0.23505420902325028 -6.464596590180988 -0.38334484544765834 -0.19053885041505877 5.981711047336809e-16 -1.0923225641666685e-15 -3.1805546814635168e-15 -1.9878466759146977e-16 -1.0933156717530838e-15 -33.50037873003404 26.151599812304827 69.4870059800926 -46.74208858989447 -3.1541881383102154e-15 7.29901689950537e-15 0.0 0.0 -4.969616689786744e-16 -3.1805546814635168e-15 -1.9878466759146977e-16 -1.0933156717530838e-15 -4.7001695142244335 -4.458068785825093 -5.092772013495281 -3.1805546814635168e-15 -1.9878466759146977e-16 -1.0933156717530838e-15 23.6334171262194 15.23744074238592 -74.71655060715075 51.22370446892936 0.0 0.0 0.0 0.0 1.5902773407317584e-15 0.0 0.0 7.951386703658792e-16 -0.9925622684515378 -25.526199165731935 -1.641843564403202 0.3128615879596258 25.449722800774726 0.2136302148507478 0.0 0.0 0.0
